<svg xmlns="http://www.w3.org/2000/svg" width="300" height="400"><g transform="translate(0 -652.362)"><rect width="300.059" height="400.778" y="652.284" ry="40" style="opacity:1;fill:#f5f0eb;fill-opacity:1;fill-rule:nonzero;stroke:none;stroke-width:10;stroke-linecap:butt;stroke-linejoin:round;stroke-miterlimit:4;stroke-dasharray:none;stroke-dashoffset:0;stroke-opacity:1"/><path d="M-4.769 775.071c-4.881-33.076-12.077-100.834 3.49-123.007 20.277-26.12 234.78-20.433 264.593 1.846 12.9 8.739-192.964 9.211-216.215 37.835C24.391 719.112.651 818.187-4.769 775.07Z" mask="url(#b)" style="fill:#fff;fill-opacity:1;fill-rule:evenodd;stroke:none;stroke-width:1px;stroke-linecap:butt;stroke-linejoin:miter;stroke-opacity:1;filter:url(#a)"/><path d="M151.736 1025.018c-3.327-9.314-10.249-68.454 5.318-90.627 20.277-26.12 219.436-16.458 231.555-9.932 11.074 5.317-178.604.06-204.851 34.867-21.594 30-26.501 82.178-32.022 65.692z" mask="url(#c)" style="fill:#000;fill-opacity:.19607843;fill-rule:evenodd;stroke:none;stroke-width:1px;stroke-linecap:butt;stroke-linejoin:miter;stroke-opacity:1;filter:url(#a)" transform="rotate(180 225.969 988.943)"/></g><g transform="translate(0 -652.362)"><g transform="matrix(1.02274 0 0 1.02274 288.325 245.696)"><circle cx="-205.976" cy="485.489" r="59.759" style="opacity:1;fill:#d71e1e;fill-opacity:1;fill-rule:nonzero;stroke:none;stroke-width:8;stroke-linecap:round;stroke-linejoin:round;stroke-miterlimit:4;stroke-dasharray:none;stroke-dashoffset:0;stroke-opacity:1"/><circle cx="-205.976" cy="485.489" r="45.07" style="opacity:1;fill:#fff;fill-opacity:1;fill-rule:nonzero;stroke:none;stroke-width:8;stroke-linecap:round;stroke-linejoin:round;stroke-miterlimit:4;stroke-dasharray:none;stroke-dashoffset:0;stroke-opacity:1"/><circle cx="-205.976" cy="485.489" r="38.811" style="opacity:1;fill:#d71e1e;fill-opacity:1;fill-rule:nonzero;stroke:none;stroke-width:8;stroke-linecap:round;stroke-linejoin:round;stroke-miterlimit:4;stroke-dasharray:none;stroke-dashoffset:0;stroke-opacity:1"/><path d="M-188.246-484.058a21.069 21.069 0 0 1-20.673 21.065 21.069 21.069 0 0 1-21.45-20.273 21.069 21.069 0 0 1 19.866-21.827 21.069 21.069 0 0 1 22.197 19.452" style="opacity:1;fill:none;fill-opacity:.29670332;fill-rule:nonzero;stroke:#fff;stroke-width:6.60038757;stroke-linecap:round;stroke-linejoin:round;stroke-miterlimit:4;stroke-dasharray:13.20077528,13.20077528;stroke-dashoffset:0;stroke-opacity:1" transform="scale(1 -1) rotate(.395)"/><circle cx="-205.976" cy="485.489" r="7.853" style="opacity:1;fill:#fff;fill-opacity:1;fill-rule:nonzero;stroke:none;stroke-width:8;stroke-linecap:round;stroke-linejoin:round;stroke-miterlimit:4;stroke-dasharray:none;stroke-dashoffset:0;stroke-opacity:1"/><circle cx="-205.976" cy="485.489" r="3.586" style="opacity:1;fill:#d71e1e;fill-opacity:1;fill-rule:nonzero;stroke:none;stroke-width:8;stroke-linecap:round;stroke-linejoin:round;stroke-miterlimit:4;stroke-dasharray:none;stroke-dashoffset:0;stroke-opacity:1"/></g><g transform="matrix(1.02274 0 0 1.02274 432.443 245.696)"><circle cx="-205.976" cy="485.489" r="59.759" style="opacity:1;fill:#d71e1e;fill-opacity:1;fill-rule:nonzero;stroke:none;stroke-width:8;stroke-linecap:round;stroke-linejoin:round;stroke-miterlimit:4;stroke-dasharray:none;stroke-dashoffset:0;stroke-opacity:1"/><circle cx="-205.976" cy="485.489" r="45.07" style="opacity:1;fill:#fff;fill-opacity:1;fill-rule:nonzero;stroke:none;stroke-width:8;stroke-linecap:round;stroke-linejoin:round;stroke-miterlimit:4;stroke-dasharray:none;stroke-dashoffset:0;stroke-opacity:1"/><circle cx="-205.976" cy="485.489" r="38.811" style="opacity:1;fill:#d71e1e;fill-opacity:1;fill-rule:nonzero;stroke:none;stroke-width:8;stroke-linecap:round;stroke-linejoin:round;stroke-miterlimit:4;stroke-dasharray:none;stroke-dashoffset:0;stroke-opacity:1"/><path d="M-188.246-484.058a21.069 21.069 0 0 1-20.673 21.065 21.069 21.069 0 0 1-21.45-20.273 21.069 21.069 0 0 1 19.866-21.827 21.069 21.069 0 0 1 22.197 19.452" style="opacity:1;fill:none;fill-opacity:.29670332;fill-rule:nonzero;stroke:#fff;stroke-width:6.60038757;stroke-linecap:round;stroke-linejoin:round;stroke-miterlimit:4;stroke-dasharray:13.20077528,13.20077528;stroke-dashoffset:0;stroke-opacity:1" transform="scale(1 -1) rotate(.395)"/><circle cx="-205.976" cy="485.489" r="7.853" style="opacity:1;fill:#fff;fill-opacity:1;fill-rule:nonzero;stroke:none;stroke-width:8;stroke-linecap:round;stroke-linejoin:round;stroke-miterlimit:4;stroke-dasharray:none;stroke-dashoffset:0;stroke-opacity:1"/><circle cx="-205.976" cy="485.489" r="3.586" style="opacity:1;fill:#d71e1e;fill-opacity:1;fill-rule:nonzero;stroke:none;stroke-width:8;stroke-linecap:round;stroke-linejoin:round;stroke-miterlimit:4;stroke-dasharray:none;stroke-dashoffset:0;stroke-opacity:1"/></g><g transform="matrix(1.02274 0 0 1.02274 288.325 465.627)"><circle cx="-205.976" cy="485.489" r="59.759" style="opacity:1;fill:#d71e1e;fill-opacity:1;fill-rule:nonzero;stroke:none;stroke-width:8;stroke-linecap:round;stroke-linejoin:round;stroke-miterlimit:4;stroke-dasharray:none;stroke-dashoffset:0;stroke-opacity:1"/><circle cx="-205.976" cy="485.489" r="45.07" style="opacity:1;fill:#fff;fill-opacity:1;fill-rule:nonzero;stroke:none;stroke-width:8;stroke-linecap:round;stroke-linejoin:round;stroke-miterlimit:4;stroke-dasharray:none;stroke-dashoffset:0;stroke-opacity:1"/><circle cx="-205.976" cy="485.489" r="38.811" style="opacity:1;fill:#d71e1e;fill-opacity:1;fill-rule:nonzero;stroke:none;stroke-width:8;stroke-linecap:round;stroke-linejoin:round;stroke-miterlimit:4;stroke-dasharray:none;stroke-dashoffset:0;stroke-opacity:1"/><path d="M-188.246-484.058a21.069 21.069 0 0 1-20.673 21.065 21.069 21.069 0 0 1-21.45-20.273 21.069 21.069 0 0 1 19.866-21.827 21.069 21.069 0 0 1 22.197 19.452" style="opacity:1;fill:none;fill-opacity:.29670332;fill-rule:nonzero;stroke:#fff;stroke-width:6.60038757;stroke-linecap:round;stroke-linejoin:round;stroke-miterlimit:4;stroke-dasharray:13.20077528,13.20077528;stroke-dashoffset:0;stroke-opacity:1" transform="scale(1 -1) rotate(.395)"/><circle cx="-205.976" cy="485.489" r="7.853" style="opacity:1;fill:#fff;fill-opacity:1;fill-rule:nonzero;stroke:none;stroke-width:8;stroke-linecap:round;stroke-linejoin:round;stroke-miterlimit:4;stroke-dasharray:none;stroke-dashoffset:0;stroke-opacity:1"/><circle cx="-205.976" cy="485.489" r="3.586" style="opacity:1;fill:#d71e1e;fill-opacity:1;fill-rule:nonzero;stroke:none;stroke-width:8;stroke-linecap:round;stroke-linejoin:round;stroke-miterlimit:4;stroke-dasharray:none;stroke-dashoffset:0;stroke-opacity:1"/></g><g transform="matrix(1.02274 0 0 1.02274 432.443 465.627)"><circle cx="-205.976" cy="485.489" r="59.759" style="opacity:1;fill:#d71e1e;fill-opacity:1;fill-rule:nonzero;stroke:none;stroke-width:8;stroke-linecap:round;stroke-linejoin:round;stroke-miterlimit:4;stroke-dasharray:none;stroke-dashoffset:0;stroke-opacity:1"/><circle cx="-205.976" cy="485.489" r="45.07" style="opacity:1;fill:#fff;fill-opacity:1;fill-rule:nonzero;stroke:none;stroke-width:8;stroke-linecap:round;stroke-linejoin:round;stroke-miterlimit:4;stroke-dasharray:none;stroke-dashoffset:0;stroke-opacity:1"/><circle cx="-205.976" cy="485.489" r="38.811" style="opacity:1;fill:#d71e1e;fill-opacity:1;fill-rule:nonzero;stroke:none;stroke-width:8;stroke-linecap:round;stroke-linejoin:round;stroke-miterlimit:4;stroke-dasharray:none;stroke-dashoffset:0;stroke-opacity:1"/><path d="M-188.246-484.058a21.069 21.069 0 0 1-20.673 21.065 21.069 21.069 0 0 1-21.45-20.273 21.069 21.069 0 0 1 19.866-21.827 21.069 21.069 0 0 1 22.197 19.452" style="opacity:1;fill:none;fill-opacity:.29670332;fill-rule:nonzero;stroke:#fff;stroke-width:6.60038757;stroke-linecap:round;stroke-linejoin:round;stroke-miterlimit:4;stroke-dasharray:13.20077528,13.20077528;stroke-dashoffset:0;stroke-opacity:1" transform="scale(1 -1) rotate(.395)"/><circle cx="-205.976" cy="485.489" r="7.853" style="opacity:1;fill:#fff;fill-opacity:1;fill-rule:nonzero;stroke:none;stroke-width:8;stroke-linecap:round;stroke-linejoin:round;stroke-miterlimit:4;stroke-dasharray:none;stroke-dashoffset:0;stroke-opacity:1"/><circle cx="-205.976" cy="485.489" r="3.586" style="opacity:1;fill:#d71e1e;fill-opacity:1;fill-rule:nonzero;stroke:none;stroke-width:8;stroke-linecap:round;stroke-linejoin:round;stroke-miterlimit:4;stroke-dasharray:none;stroke-dashoffset:0;stroke-opacity:1"/></g><g transform="matrix(1.02274 0 0 1.02274 360.64 356.513)"><circle cx="-205.976" cy="485.489" r="59.759" style="opacity:1;fill:#d71e1e;fill-opacity:1;fill-rule:nonzero;stroke:none;stroke-width:8;stroke-linecap:round;stroke-linejoin:round;stroke-miterlimit:4;stroke-dasharray:none;stroke-dashoffset:0;stroke-opacity:1"/><circle cx="-205.976" cy="485.489" r="45.07" style="opacity:1;fill:#fff;fill-opacity:1;fill-rule:nonzero;stroke:none;stroke-width:8;stroke-linecap:round;stroke-linejoin:round;stroke-miterlimit:4;stroke-dasharray:none;stroke-dashoffset:0;stroke-opacity:1"/><circle cx="-205.976" cy="485.489" r="38.811" style="opacity:1;fill:#d71e1e;fill-opacity:1;fill-rule:nonzero;stroke:none;stroke-width:8;stroke-linecap:round;stroke-linejoin:round;stroke-miterlimit:4;stroke-dasharray:none;stroke-dashoffset:0;stroke-opacity:1"/><path d="M-188.246-484.058a21.069 21.069 0 0 1-20.673 21.065 21.069 21.069 0 0 1-21.45-20.273 21.069 21.069 0 0 1 19.866-21.827 21.069 21.069 0 0 1 22.197 19.452" style="opacity:1;fill:none;fill-opacity:.29670332;fill-rule:nonzero;stroke:#fff;stroke-width:6.60038757;stroke-linecap:round;stroke-linejoin:round;stroke-miterlimit:4;stroke-dasharray:13.20077528,13.20077528;stroke-dashoffset:0;stroke-opacity:1" transform="scale(1 -1) rotate(.395)"/><circle cx="-205.976" cy="485.489" r="7.853" style="opacity:1;fill:#fff;fill-opacity:1;fill-rule:nonzero;stroke:none;stroke-width:8;stroke-linecap:round;stroke-linejoin:round;stroke-miterlimit:4;stroke-dasharray:none;stroke-dashoffset:0;stroke-opacity:1"/><circle cx="-205.976" cy="485.489" r="3.586" style="opacity:1;fill:#d71e1e;fill-opacity:1;fill-rule:nonzero;stroke:none;stroke-width:8;stroke-linecap:round;stroke-linejoin:round;stroke-miterlimit:4;stroke-dasharray:none;stroke-dashoffset:0;stroke-opacity:1"/></g><circle cx="46.163" cy="852.358" r="19.783" style="opacity:1;fill:#d71e1e;fill-opacity:1;fill-rule:nonzero;stroke:none;stroke-width:10;stroke-linecap:butt;stroke-linejoin:round;stroke-miterlimit:4;stroke-dasharray:none;stroke-dashoffset:0;stroke-opacity:1"/></g></svg>
