<svg xmlns="http://www.w3.org/2000/svg" xmlns:xlink="http://www.w3.org/1999/xlink" width="300" height="400"><g transform="translate(0 -652.362)"><rect width="300.059" height="400.778" y="652.284" ry="40" style="opacity:1;fill:#f5f0eb;fill-opacity:1;fill-rule:nonzero;stroke:none;stroke-width:10;stroke-linecap:butt;stroke-linejoin:round;stroke-miterlimit:4;stroke-dasharray:none;stroke-dashoffset:0;stroke-opacity:1"/><path d="M-4.769 775.071c-4.881-33.076-12.077-100.834 3.49-123.007 20.277-26.12 234.78-20.433 264.593 1.846 12.9 8.739-192.964 9.211-216.215 37.835C24.391 719.112.651 818.187-4.769 775.07Z" mask="url(#b)" style="fill:#fff;fill-opacity:1;fill-rule:evenodd;stroke:none;stroke-width:1px;stroke-linecap:butt;stroke-linejoin:miter;stroke-opacity:1;filter:url(#a)"/><path d="M151.736 1025.018c-3.327-9.314-10.249-68.454 5.318-90.627 20.277-26.12 219.436-16.458 231.555-9.932 11.074 5.317-178.604.06-204.851 34.867-21.594 30-26.501 82.178-32.022 65.692z" mask="url(#c)" style="fill:#000;fill-opacity:.19607843;fill-rule:evenodd;stroke:none;stroke-width:1px;stroke-linecap:butt;stroke-linejoin:miter;stroke-opacity:1;filter:url(#a)" transform="rotate(180 225.969 988.943)"/></g><g transform="translate(512.082 -162.704) scale(.76584)"><circle cx="-472.783" cy="341.256" r="107.567" style="opacity:1;fill:#fff;fill-opacity:1;fill-rule:nonzero;stroke:#000;stroke-width:17.21711159;stroke-linecap:butt;stroke-linejoin:round;stroke-miterlimit:4;stroke-dasharray:none;stroke-dashoffset:0;stroke-opacity:1"/><circle cx="-472.783" cy="341.627" r="87.813" style="opacity:1;fill:#000037;fill-opacity:1;fill-rule:nonzero;stroke:none;stroke-width:0;stroke-linecap:butt;stroke-linejoin:round;stroke-miterlimit:4;stroke-dasharray:none;stroke-dashoffset:0;stroke-opacity:0"/><path id="a" d="M-93.33-74.125a163.919 163.919 0 0 1-224.594-13.082 163.919 163.919 0 0 1 0-224.975A163.919 163.919 0 0 1-93.33-325.263" style="opacity:1;fill:none;fill-opacity:1;fill-rule:nonzero;stroke:#fff;stroke-width:125.71019745;stroke-linecap:round;stroke-linejoin:round;stroke-miterlimit:4;stroke-dasharray:none;stroke-dashoffset:0;stroke-opacity:1" transform="matrix(.10477 0 0 .08588 -506.329 359.108)"/><use xlink:href="#a" id="b" width="100%" height="100%" x="0" y="0" transform="rotate(-60 -472.858 342.066)"/><use xlink:href="#b" id="c" width="100%" height="100%" x="0" y="0" transform="rotate(-60 -473.886 342.721)"/><use xlink:href="#c" id="d" width="100%" height="100%" x="0" y="0" transform="rotate(-60 -473.886 342.721)"/><use xlink:href="#d" id="e" width="100%" height="100%" x="0" y="0" transform="rotate(-60 -473.886 342.721)"/><use xlink:href="#e" width="100%" height="100%" transform="rotate(-60 -473.886 342.721)"/><circle cx="-472.931" cy="341.516" r="18.188" style="opacity:1;fill:none;fill-opacity:1;fill-rule:nonzero;stroke:#fff;stroke-width:12.28584385;stroke-linecap:butt;stroke-linejoin:round;stroke-miterlimit:4;stroke-dasharray:none;stroke-dashoffset:0;stroke-opacity:1"/></g><g transform="translate(512.082 39.796) scale(.76584)"><circle cx="-472.783" cy="341.256" r="107.567" style="opacity:1;fill:#fff;fill-opacity:1;fill-rule:nonzero;stroke:#000;stroke-width:17.21711159;stroke-linecap:butt;stroke-linejoin:round;stroke-miterlimit:4;stroke-dasharray:none;stroke-dashoffset:0;stroke-opacity:1"/><circle cx="-472.783" cy="341.627" r="87.813" style="opacity:1;fill:#000037;fill-opacity:1;fill-rule:nonzero;stroke:none;stroke-width:0;stroke-linecap:butt;stroke-linejoin:round;stroke-miterlimit:4;stroke-dasharray:none;stroke-dashoffset:0;stroke-opacity:0"/><path d="M-93.33-74.125a163.919 163.919 0 0 1-224.594-13.082 163.919 163.919 0 0 1 0-224.975A163.919 163.919 0 0 1-93.33-325.263" style="opacity:1;fill:none;fill-opacity:1;fill-rule:nonzero;stroke:#fff;stroke-width:125.71019745;stroke-linecap:round;stroke-linejoin:round;stroke-miterlimit:4;stroke-dasharray:none;stroke-dashoffset:0;stroke-opacity:1" transform="matrix(.10477 0 0 .08588 -506.329 359.108)"/><use xlink:href="#a" width="100%" height="100%" transform="rotate(-60 -472.858 342.066)"/><use xlink:href="#b" width="100%" height="100%" transform="rotate(-60 -473.886 342.721)"/><use xlink:href="#c" width="100%" height="100%" transform="rotate(-60 -473.886 342.721)"/><use xlink:href="#d" width="100%" height="100%" transform="rotate(-60 -473.886 342.721)"/><use xlink:href="#e" width="100%" height="100%" transform="rotate(-60 -473.886 342.721)"/><circle cx="-472.931" cy="341.516" r="18.188" style="opacity:1;fill:none;fill-opacity:1;fill-rule:nonzero;stroke:#fff;stroke-width:12.28584385;stroke-linecap:butt;stroke-linejoin:round;stroke-miterlimit:4;stroke-dasharray:none;stroke-dashoffset:0;stroke-opacity:1"/></g></svg>
