<svg xmlns="http://www.w3.org/2000/svg" width="300" height="400"><g transform="matrix(1.02274 0 0 1.02274 286.168 -420.98)"><circle cx="-205.976" cy="485.489" r="59.759" style="opacity:1;fill:#000;fill-opacity:1;fill-rule:nonzero;stroke:none;stroke-width:8;stroke-linecap:round;stroke-linejoin:round;stroke-miterlimit:4;stroke-dasharray:none;stroke-dashoffset:0;stroke-opacity:1"/><circle cx="-205.976" cy="485.489" r="45.07" style="opacity:1;fill:#fff;fill-opacity:1;fill-rule:nonzero;stroke:none;stroke-width:8;stroke-linecap:round;stroke-linejoin:round;stroke-miterlimit:4;stroke-dasharray:none;stroke-dashoffset:0;stroke-opacity:1"/><circle cx="-205.976" cy="485.489" r="38.811" style="opacity:1;fill:#000037;fill-opacity:1;fill-rule:nonzero;stroke:none;stroke-width:8;stroke-linecap:round;stroke-linejoin:round;stroke-miterlimit:4;stroke-dasharray:none;stroke-dashoffset:0;stroke-opacity:1"/><path d="M-188.246-484.058a21.069 21.069 0 0 1-20.673 21.065 21.069 21.069 0 0 1-21.45-20.273 21.069 21.069 0 0 1 19.866-21.827 21.069 21.069 0 0 1 22.197 19.452" style="opacity:1;fill:none;fill-opacity:.29670332;fill-rule:nonzero;stroke:#fff;stroke-width:6.60038757;stroke-linecap:round;stroke-linejoin:round;stroke-miterlimit:4;stroke-dasharray:13.20077528,13.20077528;stroke-dashoffset:0;stroke-opacity:1" transform="scale(1 -1) rotate(.395)"/><circle cx="-205.976" cy="485.489" r="7.853" style="opacity:1;fill:#fff;fill-opacity:1;fill-rule:nonzero;stroke:none;stroke-width:8;stroke-linecap:round;stroke-linejoin:round;stroke-miterlimit:4;stroke-dasharray:none;stroke-dashoffset:0;stroke-opacity:1"/><circle cx="-205.976" cy="485.489" r="3.586" style="opacity:1;fill:#000037;fill-opacity:1;fill-rule:nonzero;stroke:none;stroke-width:8;stroke-linecap:round;stroke-linejoin:round;stroke-miterlimit:4;stroke-dasharray:none;stroke-dashoffset:0;stroke-opacity:1"/></g><g transform="matrix(1.02274 0 0 1.02274 360.65 -296.573)"><circle cx="-205.976" cy="485.489" r="59.759" style="opacity:1;fill:#000;fill-opacity:1;fill-rule:nonzero;stroke:none;stroke-width:8;stroke-linecap:round;stroke-linejoin:round;stroke-miterlimit:4;stroke-dasharray:none;stroke-dashoffset:0;stroke-opacity:1"/><circle cx="-205.976" cy="485.489" r="45.07" style="opacity:1;fill:#fff;fill-opacity:1;fill-rule:nonzero;stroke:none;stroke-width:8;stroke-linecap:round;stroke-linejoin:round;stroke-miterlimit:4;stroke-dasharray:none;stroke-dashoffset:0;stroke-opacity:1"/><circle cx="-205.976" cy="485.489" r="38.811" style="opacity:1;fill:#b93c3c;fill-opacity:1;fill-rule:nonzero;stroke:none;stroke-width:8;stroke-linecap:round;stroke-linejoin:round;stroke-miterlimit:4;stroke-dasharray:none;stroke-dashoffset:0;stroke-opacity:1"/><path d="M-188.246-484.058a21.069 21.069 0 0 1-20.673 21.065 21.069 21.069 0 0 1-21.45-20.273 21.069 21.069 0 0 1 19.866-21.827 21.069 21.069 0 0 1 22.197 19.452" style="opacity:1;fill:none;fill-opacity:.29670332;fill-rule:nonzero;stroke:#fff;stroke-width:6.60038757;stroke-linecap:round;stroke-linejoin:round;stroke-miterlimit:4;stroke-dasharray:13.20077528,13.20077528;stroke-dashoffset:0;stroke-opacity:1" transform="scale(1 -1) rotate(.395)"/><circle cx="-205.976" cy="485.489" r="7.853" style="opacity:1;fill:#fff;fill-opacity:1;fill-rule:nonzero;stroke:none;stroke-width:8;stroke-linecap:round;stroke-linejoin:round;stroke-miterlimit:4;stroke-dasharray:none;stroke-dashoffset:0;stroke-opacity:1"/><circle cx="-205.976" cy="485.489" r="3.586" style="opacity:1;fill:#b93c3c;fill-opacity:1;fill-rule:nonzero;stroke:none;stroke-width:8;stroke-linecap:round;stroke-linejoin:round;stroke-miterlimit:4;stroke-dasharray:none;stroke-dashoffset:0;stroke-opacity:1"/></g><g transform="matrix(1.02274 0 0 1.02274 435.137 -172.042)"><circle cx="-205.976" cy="485.489" r="59.759" style="opacity:1;fill:#000;fill-opacity:1;fill-rule:nonzero;stroke:none;stroke-width:8;stroke-linecap:round;stroke-linejoin:round;stroke-miterlimit:4;stroke-dasharray:none;stroke-dashoffset:0;stroke-opacity:1"/><circle cx="-205.976" cy="485.489" r="45.07" style="opacity:1;fill:#fff;fill-opacity:1;fill-rule:nonzero;stroke:none;stroke-width:8;stroke-linecap:round;stroke-linejoin:round;stroke-miterlimit:4;stroke-dasharray:none;stroke-dashoffset:0;stroke-opacity:1"/><circle cx="-205.976" cy="485.489" r="38.811" style="opacity:1;fill:#000037;fill-opacity:1;fill-rule:nonzero;stroke:none;stroke-width:8;stroke-linecap:round;stroke-linejoin:round;stroke-miterlimit:4;stroke-dasharray:none;stroke-dashoffset:0;stroke-opacity:1"/><path d="M-188.246-484.058a21.069 21.069 0 0 1-20.673 21.065 21.069 21.069 0 0 1-21.45-20.273 21.069 21.069 0 0 1 19.866-21.827 21.069 21.069 0 0 1 22.197 19.452" style="opacity:1;fill:none;fill-opacity:.29670332;fill-rule:nonzero;stroke:#fff;stroke-width:6.60038757;stroke-linecap:round;stroke-linejoin:round;stroke-miterlimit:4;stroke-dasharray:13.20077528,13.20077528;stroke-dashoffset:0;stroke-opacity:1" transform="scale(1 -1) rotate(.395)"/><circle cx="-205.976" cy="485.489" r="7.853" style="opacity:1;fill:#fff;fill-opacity:1;fill-rule:nonzero;stroke:none;stroke-width:8;stroke-linecap:round;stroke-linejoin:round;stroke-miterlimit:4;stroke-dasharray:none;stroke-dashoffset:0;stroke-opacity:1"/><circle cx="-205.976" cy="485.489" r="3.586" style="opacity:1;fill:#000037;fill-opacity:1;fill-rule:nonzero;stroke:none;stroke-width:8;stroke-linecap:round;stroke-linejoin:round;stroke-miterlimit:4;stroke-dasharray:none;stroke-dashoffset:0;stroke-opacity:1"/></g></svg>