<svg xmlns="http://www.w3.org/2000/svg" width="300" height="400"><g transform="translate(0 -652.362)"><rect width="300.059" height="400.778" y="652.284" ry="40" style="opacity:1;fill:#f5f0eb;fill-opacity:1;fill-rule:nonzero;stroke:none;stroke-width:10;stroke-linecap:butt;stroke-linejoin:round;stroke-miterlimit:4;stroke-dasharray:none;stroke-dashoffset:0;stroke-opacity:1"/><path d="M-4.769 775.071c-4.881-33.076-12.077-100.834 3.49-123.007 20.277-26.12 234.78-20.433 264.593 1.846 12.9 8.739-192.964 9.211-216.215 37.835C24.391 719.112.651 818.187-4.769 775.07Z" mask="url(#b)" style="fill:#fff;fill-opacity:1;fill-rule:evenodd;stroke:none;stroke-width:1px;stroke-linecap:butt;stroke-linejoin:miter;stroke-opacity:1;filter:url(#a)"/><path d="M151.736 1025.018c-3.327-9.314-10.249-68.454 5.318-90.627 20.277-26.12 219.436-16.458 231.555-9.932 11.074 5.317-178.604.06-204.851 34.867-21.594 30-26.501 82.178-32.022 65.692z" mask="url(#c)" style="fill:#000;fill-opacity:.19607843;fill-rule:evenodd;stroke:none;stroke-width:1px;stroke-linecap:butt;stroke-linejoin:miter;stroke-opacity:1;filter:url(#a)" transform="rotate(180 225.969 988.943)"/></g><g transform="translate(0 -662.74)"><circle cx="100.455" cy="736.819" r="61.118" style="opacity:1;fill:#000;fill-opacity:1;fill-rule:nonzero;stroke:none;stroke-width:8;stroke-linecap:round;stroke-linejoin:round;stroke-miterlimit:4;stroke-dasharray:none;stroke-dashoffset:0;stroke-opacity:1"/><circle cx="100.568" cy="988.504" r="61.118" style="opacity:1;fill:#000;fill-opacity:1;fill-rule:nonzero;stroke:none;stroke-width:8;stroke-linecap:round;stroke-linejoin:round;stroke-miterlimit:4;stroke-dasharray:none;stroke-dashoffset:0;stroke-opacity:1"/><circle cx="199.498" cy="988.504" r="61.118" style="opacity:1;fill:#000;fill-opacity:1;fill-rule:nonzero;stroke:none;stroke-width:8;stroke-linecap:round;stroke-linejoin:round;stroke-miterlimit:4;stroke-dasharray:none;stroke-dashoffset:0;stroke-opacity:1"/><circle cx="199.498" cy="901.176" r="61.118" style="opacity:1;fill:#000;fill-opacity:1;fill-rule:nonzero;stroke:none;stroke-width:8;stroke-linecap:round;stroke-linejoin:round;stroke-miterlimit:4;stroke-dasharray:none;stroke-dashoffset:0;stroke-opacity:1"/><circle cx="100.568" cy="901.176" r="61.118" style="opacity:1;fill:#000;fill-opacity:1;fill-rule:nonzero;stroke:none;stroke-width:8;stroke-linecap:round;stroke-linejoin:round;stroke-miterlimit:4;stroke-dasharray:none;stroke-dashoffset:0;stroke-opacity:1"/><circle cx="100.568" cy="901.176" r="46.095" style="opacity:1;fill:#fff;fill-opacity:1;fill-rule:nonzero;stroke:none;stroke-width:8;stroke-linecap:round;stroke-linejoin:round;stroke-miterlimit:4;stroke-dasharray:none;stroke-dashoffset:0;stroke-opacity:1"/><circle cx="100.568" cy="901.176" r="39.693" style="opacity:1;fill:#b93c3c;fill-opacity:1;fill-rule:nonzero;stroke:none;stroke-width:8;stroke-linecap:round;stroke-linejoin:round;stroke-miterlimit:4;stroke-dasharray:none;stroke-dashoffset:0;stroke-opacity:1"/><path d="M115.905-901.847a21.548 21.548 0 0 1-21.143 21.543 21.548 21.548 0 0 1-21.937-20.733 21.548 21.548 0 0 1 20.318-22.324 21.548 21.548 0 0 1 22.701 19.895" style="opacity:1;fill:none;fill-opacity:.29670332;fill-rule:nonzero;stroke:#fff;stroke-width:6.75044918;stroke-linecap:round;stroke-linejoin:round;stroke-miterlimit:4;stroke-dasharray:13.50089867,13.50089867;stroke-dashoffset:0;stroke-opacity:1" transform="scale(1 -1) rotate(.395)"/><circle cx="100.568" cy="901.176" r="8.032" style="opacity:1;fill:#fff;fill-opacity:1;fill-rule:nonzero;stroke:none;stroke-width:8;stroke-linecap:round;stroke-linejoin:round;stroke-miterlimit:4;stroke-dasharray:none;stroke-dashoffset:0;stroke-opacity:1"/><circle cx="100.568" cy="901.176" r="3.668" style="opacity:1;fill:#b93c3c;fill-opacity:1;fill-rule:nonzero;stroke:none;stroke-width:8;stroke-linecap:round;stroke-linejoin:round;stroke-miterlimit:4;stroke-dasharray:none;stroke-dashoffset:0;stroke-opacity:1"/><circle cx="199.498" cy="901.176" r="46.095" style="opacity:1;fill:#fff;fill-opacity:1;fill-rule:nonzero;stroke:none;stroke-width:8;stroke-linecap:round;stroke-linejoin:round;stroke-miterlimit:4;stroke-dasharray:none;stroke-dashoffset:0;stroke-opacity:1"/><circle cx="199.498" cy="901.176" r="39.693" style="opacity:1;fill:#b93c3c;fill-opacity:1;fill-rule:nonzero;stroke:none;stroke-width:8;stroke-linecap:round;stroke-linejoin:round;stroke-miterlimit:4;stroke-dasharray:none;stroke-dashoffset:0;stroke-opacity:1"/><path d="M214.832-902.53a21.548 21.548 0 0 1-21.142 21.545 21.548 21.548 0 0 1-21.938-20.734 21.548 21.548 0 0 1 20.318-22.324 21.548 21.548 0 0 1 22.701 19.895" style="opacity:1;fill:none;fill-opacity:.29670332;fill-rule:nonzero;stroke:#fff;stroke-width:6.75044918;stroke-linecap:round;stroke-linejoin:round;stroke-miterlimit:4;stroke-dasharray:13.50089867,13.50089867;stroke-dashoffset:0;stroke-opacity:1" transform="scale(1 -1) rotate(.395)"/><circle cx="199.498" cy="901.176" r="8.032" style="opacity:1;fill:#fff;fill-opacity:1;fill-rule:nonzero;stroke:none;stroke-width:8;stroke-linecap:round;stroke-linejoin:round;stroke-miterlimit:4;stroke-dasharray:none;stroke-dashoffset:0;stroke-opacity:1"/><circle cx="199.498" cy="901.176" r="3.668" style="opacity:1;fill:#b93c3c;fill-opacity:1;fill-rule:nonzero;stroke:none;stroke-width:8;stroke-linecap:round;stroke-linejoin:round;stroke-miterlimit:4;stroke-dasharray:none;stroke-dashoffset:0;stroke-opacity:1"/><circle cx="100.568" cy="988.504" r="46.095" style="opacity:1;fill:#fff;fill-opacity:1;fill-rule:nonzero;stroke:none;stroke-width:8;stroke-linecap:round;stroke-linejoin:round;stroke-miterlimit:4;stroke-dasharray:none;stroke-dashoffset:0;stroke-opacity:1"/><circle cx="100.568" cy="988.504" r="39.693" style="opacity:1;fill:#b93c3c;fill-opacity:1;fill-rule:nonzero;stroke:none;stroke-width:8;stroke-linecap:round;stroke-linejoin:round;stroke-miterlimit:4;stroke-dasharray:none;stroke-dashoffset:0;stroke-opacity:1"/><path d="M115.303-989.173a21.548 21.548 0 0 1-21.142 21.544 21.548 21.548 0 0 1-21.938-20.734 21.548 21.548 0 0 1 20.318-22.323 21.548 21.548 0 0 1 22.701 19.894" style="opacity:1;fill:none;fill-opacity:.29670332;fill-rule:nonzero;stroke:#fff;stroke-width:6.75044918;stroke-linecap:round;stroke-linejoin:round;stroke-miterlimit:4;stroke-dasharray:13.50089867,13.50089867;stroke-dashoffset:0;stroke-opacity:1" transform="scale(1 -1) rotate(.395)"/><circle cx="100.568" cy="988.504" r="8.032" style="opacity:1;fill:#fff;fill-opacity:1;fill-rule:nonzero;stroke:none;stroke-width:8;stroke-linecap:round;stroke-linejoin:round;stroke-miterlimit:4;stroke-dasharray:none;stroke-dashoffset:0;stroke-opacity:1"/><circle cx="100.568" cy="988.504" r="3.668" style="opacity:1;fill:#b93c3c;fill-opacity:1;fill-rule:nonzero;stroke:none;stroke-width:8;stroke-linecap:round;stroke-linejoin:round;stroke-miterlimit:4;stroke-dasharray:none;stroke-dashoffset:0;stroke-opacity:1"/><circle cx="199.498" cy="988.504" r="46.095" style="opacity:1;fill:#fff;fill-opacity:1;fill-rule:nonzero;stroke:none;stroke-width:8;stroke-linecap:round;stroke-linejoin:round;stroke-miterlimit:4;stroke-dasharray:none;stroke-dashoffset:0;stroke-opacity:1"/><circle cx="199.498" cy="988.504" r="39.693" style="opacity:1;fill:#b93c3c;fill-opacity:1;fill-rule:nonzero;stroke:none;stroke-width:8;stroke-linecap:round;stroke-linejoin:round;stroke-miterlimit:4;stroke-dasharray:none;stroke-dashoffset:0;stroke-opacity:1"/><path d="M214.23-989.855a21.548 21.548 0 0 1-21.142 21.544 21.548 21.548 0 0 1-21.938-20.734 21.548 21.548 0 0 1 20.318-22.323 21.548 21.548 0 0 1 22.702 19.894" style="opacity:1;fill:none;fill-opacity:.29670332;fill-rule:nonzero;stroke:#fff;stroke-width:6.75044918;stroke-linecap:round;stroke-linejoin:round;stroke-miterlimit:4;stroke-dasharray:13.50089867,13.50089867;stroke-dashoffset:0;stroke-opacity:1" transform="scale(1 -1) rotate(.395)"/><circle cx="199.498" cy="988.504" r="8.032" style="opacity:1;fill:#fff;fill-opacity:1;fill-rule:nonzero;stroke:none;stroke-width:8;stroke-linecap:round;stroke-linejoin:round;stroke-miterlimit:4;stroke-dasharray:none;stroke-dashoffset:0;stroke-opacity:1"/><circle cx="199.498" cy="988.504" r="3.668" style="opacity:1;fill:#b93c3c;fill-opacity:1;fill-rule:nonzero;stroke:none;stroke-width:8;stroke-linecap:round;stroke-linejoin:round;stroke-miterlimit:4;stroke-dasharray:none;stroke-dashoffset:0;stroke-opacity:1"/><circle cx="199.627" cy="736.819" r="61.118" style="opacity:1;fill:#000;fill-opacity:1;fill-rule:nonzero;stroke:none;stroke-width:8;stroke-linecap:round;stroke-linejoin:round;stroke-miterlimit:4;stroke-dasharray:none;stroke-dashoffset:0;stroke-opacity:1"/><circle cx="199.627" cy="736.819" r="46.095" style="opacity:1;fill:#fff;fill-opacity:1;fill-rule:nonzero;stroke:none;stroke-width:8;stroke-linecap:round;stroke-linejoin:round;stroke-miterlimit:4;stroke-dasharray:none;stroke-dashoffset:0;stroke-opacity:1"/><circle cx="199.627" cy="736.819" r="39.693" style="opacity:1;fill:#000037;fill-opacity:1;fill-rule:nonzero;stroke:none;stroke-width:8;stroke-linecap:round;stroke-linejoin:round;stroke-miterlimit:4;stroke-dasharray:none;stroke-dashoffset:0;stroke-opacity:1"/><path d="M216.093-738.177a21.548 21.548 0 0 1-21.142 21.544 21.548 21.548 0 0 1-21.938-20.734 21.548 21.548 0 0 1 20.318-22.323 21.548 21.548 0 0 1 22.702 19.894" style="opacity:1;fill:none;fill-opacity:.29670332;fill-rule:nonzero;stroke:#fff;stroke-width:6.75044918;stroke-linecap:round;stroke-linejoin:round;stroke-miterlimit:4;stroke-dasharray:13.50089867,13.50089867;stroke-dashoffset:0;stroke-opacity:1" transform="scale(1 -1) rotate(.395)"/><circle cx="199.627" cy="736.819" r="8.032" style="opacity:1;fill:#fff;fill-opacity:1;fill-rule:nonzero;stroke:none;stroke-width:8;stroke-linecap:round;stroke-linejoin:round;stroke-miterlimit:4;stroke-dasharray:none;stroke-dashoffset:0;stroke-opacity:1"/><circle cx="199.627" cy="736.819" r="3.668" style="opacity:1;fill:#000037;fill-opacity:1;fill-rule:nonzero;stroke:none;stroke-width:8;stroke-linecap:round;stroke-linejoin:round;stroke-miterlimit:4;stroke-dasharray:none;stroke-dashoffset:0;stroke-opacity:1"/><circle cx="100.455" cy="736.819" r="46.095" style="opacity:1;fill:#fff;fill-opacity:1;fill-rule:nonzero;stroke:none;stroke-width:8;stroke-linecap:round;stroke-linejoin:round;stroke-miterlimit:4;stroke-dasharray:none;stroke-dashoffset:0;stroke-opacity:1"/><circle cx="100.455" cy="736.819" r="39.693" style="opacity:1;fill:#000037;fill-opacity:1;fill-rule:nonzero;stroke:none;stroke-width:8;stroke-linecap:round;stroke-linejoin:round;stroke-miterlimit:4;stroke-dasharray:none;stroke-dashoffset:0;stroke-opacity:1"/><path d="M116.924-737.494a21.548 21.548 0 0 1-21.142 21.544 21.548 21.548 0 0 1-21.938-20.733 21.548 21.548 0 0 1 20.318-22.324 21.548 21.548 0 0 1 22.701 19.894" style="opacity:1;fill:none;fill-opacity:.29670332;fill-rule:nonzero;stroke:#fff;stroke-width:6.75044918;stroke-linecap:round;stroke-linejoin:round;stroke-miterlimit:4;stroke-dasharray:13.50089867,13.50089867;stroke-dashoffset:0;stroke-opacity:1" transform="scale(1 -1) rotate(.395)"/><circle cx="100.455" cy="736.819" r="8.032" style="opacity:1;fill:#fff;fill-opacity:1;fill-rule:nonzero;stroke:none;stroke-width:8;stroke-linecap:round;stroke-linejoin:round;stroke-miterlimit:4;stroke-dasharray:none;stroke-dashoffset:0;stroke-opacity:1"/><circle cx="100.455" cy="736.819" r="3.668" style="opacity:1;fill:#000037;fill-opacity:1;fill-rule:nonzero;stroke:none;stroke-width:8;stroke-linecap:round;stroke-linejoin:round;stroke-miterlimit:4;stroke-dasharray:none;stroke-dashoffset:0;stroke-opacity:1"/></g></svg>
