<svg xmlns="http://www.w3.org/2000/svg" width="300" height="400"><g transform="translate(0 -652.361)"><circle cx="97.786" cy="718.121" r="61.118" style="opacity:1;fill:#000;fill-opacity:1;fill-rule:nonzero;stroke:none;stroke-width:8;stroke-linecap:round;stroke-linejoin:round;stroke-miterlimit:4;stroke-dasharray:none;stroke-dashoffset:0;stroke-opacity:1"/><circle cx="97.786" cy="808.121" r="61.118" style="opacity:1;fill:#000;fill-opacity:1;fill-rule:nonzero;stroke:none;stroke-width:8;stroke-linecap:round;stroke-linejoin:round;stroke-miterlimit:4;stroke-dasharray:none;stroke-dashoffset:0;stroke-opacity:1"/><circle cx="97.786" cy="896.621" r="61.118" style="opacity:1;fill:#000;fill-opacity:1;fill-rule:nonzero;stroke:none;stroke-width:8;stroke-linecap:round;stroke-linejoin:round;stroke-miterlimit:4;stroke-dasharray:none;stroke-dashoffset:0;stroke-opacity:1"/><circle cx="97.786" cy="986.621" r="61.118" style="opacity:1;fill:#000;fill-opacity:1;fill-rule:nonzero;stroke:none;stroke-width:8;stroke-linecap:round;stroke-linejoin:round;stroke-miterlimit:4;stroke-dasharray:none;stroke-dashoffset:0;stroke-opacity:1"/><circle cx="202.214" cy="718.121" r="61.118" style="opacity:1;fill:#000;fill-opacity:1;fill-rule:nonzero;stroke:none;stroke-width:8;stroke-linecap:round;stroke-linejoin:round;stroke-miterlimit:4;stroke-dasharray:none;stroke-dashoffset:0;stroke-opacity:1"/><circle cx="202.214" cy="808.121" r="61.118" style="opacity:1;fill:#000;fill-opacity:1;fill-rule:nonzero;stroke:none;stroke-width:8;stroke-linecap:round;stroke-linejoin:round;stroke-miterlimit:4;stroke-dasharray:none;stroke-dashoffset:0;stroke-opacity:1"/><circle cx="202.214" cy="896.621" r="61.118" style="opacity:1;fill:#000;fill-opacity:1;fill-rule:nonzero;stroke:none;stroke-width:8;stroke-linecap:round;stroke-linejoin:round;stroke-miterlimit:4;stroke-dasharray:none;stroke-dashoffset:0;stroke-opacity:1"/><circle cx="202.214" cy="986.621" r="61.118" style="opacity:1;fill:#000;fill-opacity:1;fill-rule:nonzero;stroke:none;stroke-width:8;stroke-linecap:round;stroke-linejoin:round;stroke-miterlimit:4;stroke-dasharray:none;stroke-dashoffset:0;stroke-opacity:1"/><circle cx="97.786" cy="718.121" r="46.095" style="opacity:1;fill:#fff;fill-opacity:1;fill-rule:nonzero;stroke:none;stroke-width:8;stroke-linecap:round;stroke-linejoin:round;stroke-miterlimit:4;stroke-dasharray:none;stroke-dashoffset:0;stroke-opacity:1"/><circle cx="97.786" cy="718.121" r="39.693" style="opacity:1;fill:#000037;fill-opacity:1;fill-rule:nonzero;stroke:none;stroke-width:8;stroke-linecap:round;stroke-linejoin:round;stroke-miterlimit:4;stroke-dasharray:none;stroke-dashoffset:0;stroke-opacity:1"/><path d="M114.384-718.778a21.548 21.548 0 0 1-21.143 21.544 21.548 21.548 0 0 1-21.937-20.734A21.548 21.548 0 0 1 91.62-740.29a21.548 21.548 0 0 1 22.702 19.894" style="opacity:1;fill:none;fill-opacity:.29670332;fill-rule:nonzero;stroke:#fff;stroke-width:6.75044918;stroke-linecap:round;stroke-linejoin:round;stroke-miterlimit:4;stroke-dasharray:13.50089867,13.50089867;stroke-dashoffset:0;stroke-opacity:1" transform="scale(1 -1) rotate(.395)"/><circle cx="97.786" cy="718.121" r="8.032" style="opacity:1;fill:#fff;fill-opacity:1;fill-rule:nonzero;stroke:none;stroke-width:8;stroke-linecap:round;stroke-linejoin:round;stroke-miterlimit:4;stroke-dasharray:none;stroke-dashoffset:0;stroke-opacity:1"/><circle cx="97.786" cy="718.121" r="3.668" style="opacity:1;fill:#000037;fill-opacity:1;fill-rule:nonzero;stroke:none;stroke-width:8;stroke-linecap:round;stroke-linejoin:round;stroke-miterlimit:4;stroke-dasharray:none;stroke-dashoffset:0;stroke-opacity:1"/><circle cx="97.786" cy="808.121" r="46.095" style="opacity:1;fill:#fff;fill-opacity:1;fill-rule:nonzero;stroke:none;stroke-width:8;stroke-linecap:round;stroke-linejoin:round;stroke-miterlimit:4;stroke-dasharray:none;stroke-dashoffset:0;stroke-opacity:1"/><circle cx="97.786" cy="808.121" r="39.693" style="opacity:1;fill:#000037;fill-opacity:1;fill-rule:nonzero;stroke:none;stroke-width:8;stroke-linecap:round;stroke-linejoin:round;stroke-miterlimit:4;stroke-dasharray:none;stroke-dashoffset:0;stroke-opacity:1"/><path d="M113.764-808.776a21.548 21.548 0 0 1-21.143 21.544 21.548 21.548 0 0 1-21.937-20.734A21.548 21.548 0 0 1 91-830.288a21.548 21.548 0 0 1 22.702 19.894" style="opacity:1;fill:none;fill-opacity:.29670332;fill-rule:nonzero;stroke:#fff;stroke-width:6.75044918;stroke-linecap:round;stroke-linejoin:round;stroke-miterlimit:4;stroke-dasharray:13.50089867,13.50089867;stroke-dashoffset:0;stroke-opacity:1" transform="scale(1 -1) rotate(.395)"/><circle cx="97.786" cy="808.121" r="8.032" style="opacity:1;fill:#fff;fill-opacity:1;fill-rule:nonzero;stroke:none;stroke-width:8;stroke-linecap:round;stroke-linejoin:round;stroke-miterlimit:4;stroke-dasharray:none;stroke-dashoffset:0;stroke-opacity:1"/><circle cx="97.786" cy="808.121" r="3.668" style="opacity:1;fill:#000037;fill-opacity:1;fill-rule:nonzero;stroke:none;stroke-width:8;stroke-linecap:round;stroke-linejoin:round;stroke-miterlimit:4;stroke-dasharray:none;stroke-dashoffset:0;stroke-opacity:1"/><circle cx="97.786" cy="896.621" r="46.095" style="opacity:1;fill:#fff;fill-opacity:1;fill-rule:nonzero;stroke:none;stroke-width:8;stroke-linecap:round;stroke-linejoin:round;stroke-miterlimit:4;stroke-dasharray:none;stroke-dashoffset:0;stroke-opacity:1"/><circle cx="97.786" cy="896.621" r="39.693" style="opacity:1;fill:#000037;fill-opacity:1;fill-rule:nonzero;stroke:none;stroke-width:8;stroke-linecap:round;stroke-linejoin:round;stroke-miterlimit:4;stroke-dasharray:none;stroke-dashoffset:0;stroke-opacity:1"/><path d="M113.154-897.273A21.548 21.548 0 0 1 92.01-875.73a21.548 21.548 0 0 1-21.937-20.733 21.548 21.548 0 0 1 20.317-22.324 21.548 21.548 0 0 1 22.702 19.895" style="opacity:1;fill:none;fill-opacity:.29670332;fill-rule:nonzero;stroke:#fff;stroke-width:6.75044918;stroke-linecap:round;stroke-linejoin:round;stroke-miterlimit:4;stroke-dasharray:13.50089867,13.50089867;stroke-dashoffset:0;stroke-opacity:1" transform="scale(1 -1) rotate(.395)"/><circle cx="97.786" cy="896.621" r="8.032" style="opacity:1;fill:#fff;fill-opacity:1;fill-rule:nonzero;stroke:none;stroke-width:8;stroke-linecap:round;stroke-linejoin:round;stroke-miterlimit:4;stroke-dasharray:none;stroke-dashoffset:0;stroke-opacity:1"/><circle cx="97.786" cy="896.621" r="3.668" style="opacity:1;fill:#000037;fill-opacity:1;fill-rule:nonzero;stroke:none;stroke-width:8;stroke-linecap:round;stroke-linejoin:round;stroke-miterlimit:4;stroke-dasharray:none;stroke-dashoffset:0;stroke-opacity:1"/><circle cx="97.786" cy="986.621" r="46.095" style="opacity:1;fill:#fff;fill-opacity:1;fill-rule:nonzero;stroke:none;stroke-width:8;stroke-linecap:round;stroke-linejoin:round;stroke-miterlimit:4;stroke-dasharray:none;stroke-dashoffset:0;stroke-opacity:1"/><circle cx="97.786" cy="986.621" r="39.693" style="opacity:1;fill:#000037;fill-opacity:1;fill-rule:nonzero;stroke:none;stroke-width:8;stroke-linecap:round;stroke-linejoin:round;stroke-miterlimit:4;stroke-dasharray:none;stroke-dashoffset:0;stroke-opacity:1"/><path d="M112.534-987.271a21.548 21.548 0 0 1-21.143 21.544 21.548 21.548 0 0 1-21.938-20.734 21.548 21.548 0 0 1 20.318-22.324 21.548 21.548 0 0 1 22.702 19.895" style="opacity:1;fill:none;fill-opacity:.29670332;fill-rule:nonzero;stroke:#fff;stroke-width:6.75044918;stroke-linecap:round;stroke-linejoin:round;stroke-miterlimit:4;stroke-dasharray:13.50089867,13.50089867;stroke-dashoffset:0;stroke-opacity:1" transform="scale(1 -1) rotate(.395)"/><circle cx="97.786" cy="986.621" r="8.032" style="opacity:1;fill:#fff;fill-opacity:1;fill-rule:nonzero;stroke:none;stroke-width:8;stroke-linecap:round;stroke-linejoin:round;stroke-miterlimit:4;stroke-dasharray:none;stroke-dashoffset:0;stroke-opacity:1"/><circle cx="97.786" cy="986.621" r="3.668" style="opacity:1;fill:#000037;fill-opacity:1;fill-rule:nonzero;stroke:none;stroke-width:8;stroke-linecap:round;stroke-linejoin:round;stroke-miterlimit:4;stroke-dasharray:none;stroke-dashoffset:0;stroke-opacity:1"/><circle cx="202.214" cy="718.121" r="46.095" style="opacity:1;fill:#fff;fill-opacity:1;fill-rule:nonzero;stroke:none;stroke-width:8;stroke-linecap:round;stroke-linejoin:round;stroke-miterlimit:4;stroke-dasharray:none;stroke-dashoffset:0;stroke-opacity:1"/><circle cx="202.214" cy="718.121" r="39.693" style="opacity:1;fill:#000037;fill-opacity:1;fill-rule:nonzero;stroke:none;stroke-width:8;stroke-linecap:round;stroke-linejoin:round;stroke-miterlimit:4;stroke-dasharray:none;stroke-dashoffset:0;stroke-opacity:1"/><path d="M218.81-719.497a21.548 21.548 0 0 1-21.143 21.544 21.548 21.548 0 0 1-21.938-20.734 21.548 21.548 0 0 1 20.318-22.324 21.548 21.548 0 0 1 22.702 19.895" style="opacity:1;fill:none;fill-opacity:.29670332;fill-rule:nonzero;stroke:#fff;stroke-width:6.75044918;stroke-linecap:round;stroke-linejoin:round;stroke-miterlimit:4;stroke-dasharray:13.50089867,13.50089867;stroke-dashoffset:0;stroke-opacity:1" transform="scale(1 -1) rotate(.395)"/><circle cx="202.214" cy="718.121" r="8.032" style="opacity:1;fill:#fff;fill-opacity:1;fill-rule:nonzero;stroke:none;stroke-width:8;stroke-linecap:round;stroke-linejoin:round;stroke-miterlimit:4;stroke-dasharray:none;stroke-dashoffset:0;stroke-opacity:1"/><circle cx="202.214" cy="718.121" r="3.668" style="opacity:1;fill:#000037;fill-opacity:1;fill-rule:nonzero;stroke:none;stroke-width:8;stroke-linecap:round;stroke-linejoin:round;stroke-miterlimit:4;stroke-dasharray:none;stroke-dashoffset:0;stroke-opacity:1"/><circle cx="202.214" cy="808.121" r="46.095" style="opacity:1;fill:#fff;fill-opacity:1;fill-rule:nonzero;stroke:none;stroke-width:8;stroke-linecap:round;stroke-linejoin:round;stroke-miterlimit:4;stroke-dasharray:none;stroke-dashoffset:0;stroke-opacity:1"/><circle cx="202.214" cy="808.121" r="39.693" style="opacity:1;fill:#000037;fill-opacity:1;fill-rule:nonzero;stroke:none;stroke-width:8;stroke-linecap:round;stroke-linejoin:round;stroke-miterlimit:4;stroke-dasharray:none;stroke-dashoffset:0;stroke-opacity:1"/><path d="M218.19-809.495a21.548 21.548 0 0 1-21.143 21.544 21.548 21.548 0 0 1-21.938-20.734 21.548 21.548 0 0 1 20.318-22.324 21.548 21.548 0 0 1 22.701 19.895" style="opacity:1;fill:none;fill-opacity:.29670332;fill-rule:nonzero;stroke:#fff;stroke-width:6.75044918;stroke-linecap:round;stroke-linejoin:round;stroke-miterlimit:4;stroke-dasharray:13.50089867,13.50089867;stroke-dashoffset:0;stroke-opacity:1" transform="scale(1 -1) rotate(.395)"/><circle cx="202.214" cy="808.121" r="8.032" style="opacity:1;fill:#fff;fill-opacity:1;fill-rule:nonzero;stroke:none;stroke-width:8;stroke-linecap:round;stroke-linejoin:round;stroke-miterlimit:4;stroke-dasharray:none;stroke-dashoffset:0;stroke-opacity:1"/><circle cx="202.214" cy="808.121" r="3.668" style="opacity:1;fill:#000037;fill-opacity:1;fill-rule:nonzero;stroke:none;stroke-width:8;stroke-linecap:round;stroke-linejoin:round;stroke-miterlimit:4;stroke-dasharray:none;stroke-dashoffset:0;stroke-opacity:1"/><circle cx="202.214" cy="896.621" r="46.095" style="opacity:1;fill:#fff;fill-opacity:1;fill-rule:nonzero;stroke:none;stroke-width:8;stroke-linecap:round;stroke-linejoin:round;stroke-miterlimit:4;stroke-dasharray:none;stroke-dashoffset:0;stroke-opacity:1"/><circle cx="202.214" cy="896.621" r="39.693" style="opacity:1;fill:#000037;fill-opacity:1;fill-rule:nonzero;stroke:none;stroke-width:8;stroke-linecap:round;stroke-linejoin:round;stroke-miterlimit:4;stroke-dasharray:none;stroke-dashoffset:0;stroke-opacity:1"/><path d="M217.58-897.993a21.548 21.548 0 0 1-21.143 21.544 21.548 21.548 0 0 1-21.938-20.734 21.548 21.548 0 0 1 20.318-22.323 21.548 21.548 0 0 1 22.702 19.894" style="opacity:1;fill:none;fill-opacity:.29670332;fill-rule:nonzero;stroke:#fff;stroke-width:6.75044918;stroke-linecap:round;stroke-linejoin:round;stroke-miterlimit:4;stroke-dasharray:13.50089867,13.50089867;stroke-dashoffset:0;stroke-opacity:1" transform="scale(1 -1) rotate(.395)"/><circle cx="202.214" cy="896.621" r="8.032" style="opacity:1;fill:#fff;fill-opacity:1;fill-rule:nonzero;stroke:none;stroke-width:8;stroke-linecap:round;stroke-linejoin:round;stroke-miterlimit:4;stroke-dasharray:none;stroke-dashoffset:0;stroke-opacity:1"/><circle cx="202.214" cy="896.621" r="3.668" style="opacity:1;fill:#000037;fill-opacity:1;fill-rule:nonzero;stroke:none;stroke-width:8;stroke-linecap:round;stroke-linejoin:round;stroke-miterlimit:4;stroke-dasharray:none;stroke-dashoffset:0;stroke-opacity:1"/><circle cx="202.214" cy="986.621" r="46.095" style="opacity:1;fill:#fff;fill-opacity:1;fill-rule:nonzero;stroke:none;stroke-width:8;stroke-linecap:round;stroke-linejoin:round;stroke-miterlimit:4;stroke-dasharray:none;stroke-dashoffset:0;stroke-opacity:1"/><circle cx="202.214" cy="986.621" r="39.693" style="opacity:1;fill:#000037;fill-opacity:1;fill-rule:nonzero;stroke:none;stroke-width:8;stroke-linecap:round;stroke-linejoin:round;stroke-miterlimit:4;stroke-dasharray:none;stroke-dashoffset:0;stroke-opacity:1"/><path d="M216.96-987.99a21.548 21.548 0 0 1-21.143 21.543 21.548 21.548 0 0 1-21.938-20.734 21.548 21.548 0 0 1 20.318-22.323 21.548 21.548 0 0 1 22.701 19.894" style="opacity:1;fill:none;fill-opacity:.29670332;fill-rule:nonzero;stroke:#fff;stroke-width:6.75044918;stroke-linecap:round;stroke-linejoin:round;stroke-miterlimit:4;stroke-dasharray:13.50089867,13.50089867;stroke-dashoffset:0;stroke-opacity:1" transform="scale(1 -1) rotate(.395)"/><circle cx="202.214" cy="986.621" r="8.032" style="opacity:1;fill:#fff;fill-opacity:1;fill-rule:nonzero;stroke:none;stroke-width:8;stroke-linecap:round;stroke-linejoin:round;stroke-miterlimit:4;stroke-dasharray:none;stroke-dashoffset:0;stroke-opacity:1"/><circle cx="202.214" cy="986.621" r="3.668" style="opacity:1;fill:#000037;fill-opacity:1;fill-rule:nonzero;stroke:none;stroke-width:8;stroke-linecap:round;stroke-linejoin:round;stroke-miterlimit:4;stroke-dasharray:none;stroke-dashoffset:0;stroke-opacity:1"/></g></svg>